<?xml version="1.0" encoding="utf-8"?>
<!-- Generator: Adobe Illustrator 24.2.3, SVG Export Plug-In . SVG Version: 6.00 Build 0)  -->
<svg version="1.1" id="Layer_1" xmlns="http://www.w3.org/2000/svg" xmlns:xlink="http://www.w3.org/1999/xlink" x="0px" y="0px"
	 viewBox="0 0 1000 1000" style="enable-background:new 0 0 1000 1000;" xml:space="preserve">
<style type="text/css">
	.st0{fill-rule:evenodd;clip-rule:evenodd;fill:url(#SVGID_1_);}
	.st1{fill-rule:evenodd;clip-rule:evenodd;fill:#F0F0F0;}
</style>
<radialGradient id="SVGID_1_" cx="500" cy="500" r="500" gradientTransform="matrix(1 0 0 -1 0 1000)" gradientUnits="userSpaceOnUse">
	<stop  offset="0" style="stop-color:#19326E"/>
	<stop  offset="1" style="stop-color:#171747"/>
</radialGradient>
<rect class="st0" width="1000" height="1000"/>
<path class="st1" d="M167.3,404.1c-64.9,65.9-69.5,70.7-66.9,69.8c0.6-0.2,10.5-2.6,22-5.3l20.8-4.9l89.7,42.2
	c93.4,43.9,92.3,43.4,93.2,47.2c0.3,1.3,1.9,6.8,3.6,12.2l3,9.8l8.5-3.1c4.7-1.7,10.3-3.7,12.5-4.4l4-1.3l56.9,27.9l56.9,27.9
	l13.2,19.8c7.2,10.9,13.9,20.7,14.7,21.8c1.5,2,1.6,2,14-18.9c6.9-11.5,13.3-21.7,14.3-22.8s25.8-13.8,55.1-28.2l53.3-26.3l13,3.5
	c7.1,1.9,13.8,3.7,14.8,3.9c1.7,0.4,2.2-0.6,6-11.6c2.3-6.7,4.8-12.8,5.6-13.6c0.8-0.8,41.5-19.9,90.4-42.5l89-41l21.8,4.1
	c12,2.3,22,3.9,22.3,3.7c0.4-0.4-133.2-135.4-135.2-136.6c-0.5-0.3-48.5,14.4-106.6,32.7c-100.2,31.5-109,34.2-110,32.6
	c-0.2-0.4-3.7-15.2-7.7-32.9c-4-17.7-7.5-32.2-7.8-32.2s-3.7,6.4-7.5,14.3l-6.9,14.3l-19.3-0.3c-20.8-0.3-20.9-0.3-22.5-5.3
	c-2.9-8.9-8.1-23-8.4-22.7c-0.2,0.2-3.9,13.9-8.2,30.5c-8.7,33.2-9,34.1-11,34.1c-0.8,0-48.1-14.8-105.3-32.9S238,336.4,236.8,336.1
	C235,335.7,226.6,343.9,167.3,404.1"/>
</svg>
