<?xml version="1.0" encoding="utf-8"?>
<!-- Generator: Adobe Illustrator 24.2.3, SVG Export Plug-In . SVG Version: 6.00 Build 0)  -->
<svg version="1.1" id="Layer_1" xmlns="http://www.w3.org/2000/svg" xmlns:xlink="http://www.w3.org/1999/xlink" x="0px" y="0px"
	 viewBox="0 0 1366 400" style="enable-background:new 0 0 1366 400;" xml:space="preserve">
<style type="text/css">
	.st0{fill-rule:evenodd;clip-rule:evenodd;fill:url(#SVGID_1_);}
	.st1{fill-rule:evenodd;clip-rule:evenodd;fill:#F0F0F0;}
	.st2{fill:#F0F0F0;}
</style>
<radialGradient id="SVGID_1_" cx="500" cy="-97.5" r="500" gradientTransform="matrix(1.366 0 0 0.4 0 240)" gradientUnits="userSpaceOnUse">
	<stop  offset="0" style="stop-color:#19326E"/>
	<stop  offset="1" style="stop-color:#171747"/>
</radialGradient>
<rect y="1" class="st0" width="1366" height="400"/>
<path class="st1" d="M320.99,159.76c2.25,3.64,3.37,8.17,3.37,13.59c0,2.6-0.39,5.21-1.17,7.82l-33.98-15.99v-16.44h2.85
	c8.4,0,14.76,0.93,19.08,2.78C315.46,153.38,318.75,156.13,320.99,159.76z"/>
<path class="st1" d="M832.7,177.89c-5.59-8.54-12.84-15.23-21.75-20.07c-8.92-4.83-17.16-7.25-24.72-7.25
	c-10.7,0-20.4,4.03-29.12,12.09c-8.71,8.05-13.07,18.06-13.07,30.03c0,15.28,5.32,28.71,15.97,40.28
	c10.64,11.57,22.58,17.36,35.81,17.36c7.42,0,14.75-1.99,21.97-5.97c7.23-3.98,12.92-9.46,17.07-16.45
	c4.15-6.98,6.22-14.16,6.22-21.53C841.08,195.93,838.29,186.44,832.7,177.89z M954.65,177.89c-5.59-8.54-12.85-15.23-21.76-20.07
	c-8.91-4.83-17.15-7.25-24.72-7.25c-10.69,0-20.39,4.03-29.11,12.09c-8.72,8.05-13.07,18.06-13.07,30.03
	c0,15.28,5.32,28.71,15.96,40.28c0.26,0.28,0.52,0.56,0.77,0.83c15.82-7.4,35.26-16.45,56.13-26.09l23.37-10.77
	C961.03,190.14,958.51,183.79,954.65,177.89z M1067.82,164.57c-11.2-10.55-28.07-15.82-50.62-15.82h-16.54v30.49l32.02-14.76
	l22.97,4.33c7.74,1.48,14.71,2.69,19.01,3.36C1072.68,169.52,1070.4,167,1067.82,164.57z M980.46,147.57v-1.1h49.52
	c10.39,0,18.99,0.67,25.78,2.03C1015.84,107.85,938.2,29.56,936.64,28.62c-0.53-0.31-51.16,15.19-112.43,34.49
	C718.52,96.34,709.24,99.18,708.19,97.5c-0.21-0.42-3.91-16.03-8.12-34.7c-4.22-18.67-7.91-33.96-8.23-33.96
	c-0.32,0-3.9,6.75-7.91,15.08L676.65,59l-20.35-0.32c-21.94-0.31-22.05-0.31-23.74-5.59c-3.05-9.38-8.54-24.25-8.86-23.94
	c-0.21,0.21-4.11,14.66-8.64,32.17c-9.18,35.02-9.5,35.97-11.61,35.97c-0.84,0-50.73-15.61-111.06-34.7
	C432.06,43.5,382.07,27.57,380.8,27.25c-1.89-0.42-10.75,8.23-73.3,71.72c-68.45,69.51-73.3,74.57-70.56,73.62
	c0.63-0.21,11.08-2.74,23.21-5.59l16.6-3.91v-3.37c0-3.91-0.11-6.57-0.33-7.98c-0.22-1.41-0.94-2.46-2.16-3.15
	c-1.22-0.68-2.93-1.02-5.12-1.02v-1.1h28.05c8.2,0,14.01,0.34,17.43,1.02c3.42,0.69,6.69,1.99,9.81,3.92
	c3.13,1.93,5.79,4.72,7.99,8.35c2.2,3.64,3.29,7.78,3.29,12.42c0,4.91-1.3,9.26-3.89,13.05l28.5,13.41v-42.07
	c0-3.12-0.39-5.38-1.17-6.77c-0.78-1.39-3.12-2.13-7.03-2.23v-1.1h28.93v1.1c-2.69,0-4.57,0.34-5.64,1.02
	c-1.07,0.69-1.78,1.49-2.12,2.42c-0.35,0.93-0.52,3.03-0.52,6.3v47.19l3.92,1.84c20.14,9.46,36.11,16.97,48.78,22.96l1.14,0.54
	c6.4,3.03,11.93,5.65,16.73,7.95c-2.27-4.71-3.4-10.25-3.4-16.61v-64.6c0-3.91-0.47-6.39-1.39-7.44c-0.93-1.05-3.11-1.57-6.52-1.57
	v-1.1h28.64v1.1c-3.03,0-5.17,0.47-6.41,1.43c-1.25,0.95-1.87,3.21-1.87,6.77v59.25c0,12.41,2.9,21.26,8.7,26.55
	c5.81,5.3,12.41,7.95,19.83,7.95c11.65,0,21.99-5.25,31.01-15.75v-73.02c0-6.39-0.56-10.19-1.68-11.39
	c-1.12-1.19-2.88-1.79-5.27-1.79h-1.03v-1.1h28.42v1.1c-3.52,0.19-5.73,0.78-6.63,1.75c-0.9,0.98-1.35,2.83-1.35,5.57v87.83
	c0,3.46,0.17,5.73,0.51,6.8c0.34,1.08,1.04,1.97,2.09,2.68c1.05,0.7,2.84,1.06,5.38,1.06v1.1h-20.44v-16.63
	c-10.39,11.57-22.77,17.36-37.16,17.36h-0.07c0.13,0.33,0.2,0.67,0.29,1.04c0.32,1.37,2,7.17,3.8,12.86l3.16,10.34l8.97-3.27
	c4.95-1.79,10.86-3.9,13.18-4.64l4.22-1.37l60.01,29.42l60.02,29.43l13.92,20.88c7.59,11.5,14.66,21.84,15.5,23
	c1.58,2.11,1.69,2.11,14.77-19.94c7.28-12.13,14.03-22.88,15.08-24.05c1.05-1.16,27.21-14.55,58.11-29.74l56.22-27.74l13.71,3.69
	c7.49,2.01,14.56,3.91,15.61,4.12c1.79,0.42,2.32-0.63,6.33-12.24c2.43-7.06,5.06-13.5,5.91-14.34c0.41-0.41,10.61-5.31,26.87-12.96
	c-8.4-9.39-12.6-20.51-12.6-33.35c0-9.22,2.3-18.7,6.89-28.41c4.59-9.72,11.5-17.64,20.73-23.77c9.22-6.13,20.16-9.19,32.81-9.19
	c15.13,0,27.51,4.6,37.13,13.8c9.62,9.21,14.43,20.7,14.43,34.46v0.35l18.46-8.51v-24.95c0-5.85-0.5-9.39-1.5-10.61
	C985.73,148.18,983.64,147.57,980.46,147.57z M618.14,254.36h-73.76v-1.1c2.49-0.15,4.38-0.63,5.68-1.43
	c1.29-0.8,1.94-2.89,1.94-6.26v-87.1c0-3.95-0.34-6.73-1.03-8.34c-0.68-1.61-2.88-2.42-6.59-2.42v-1.24h67.82v14.87h-1.1
	c-1.46-5.52-2.69-8.77-3.69-9.74c-1.01-0.98-3.46-1.47-7.37-1.47h-35.59v48.41h33.03c3.27,0,5.35-0.3,6.23-0.91
	c0.88-0.61,1.34-1.5,1.39-2.67h1.1v10.18h-1.1c-0.25-1.42-0.82-2.37-1.72-2.86c-0.91-0.49-2.58-0.73-5.02-0.73h-33.91v33.32
	c0,5.03,0.46,8.66,1.39,10.88c0.93,2.22,2.4,3.61,4.42,4.17c2.03,0.57,5.09,0.85,9.18,0.85h19.02c6.05,0,9.91-0.21,11.59-0.62
	c1.68-0.41,3.11-1.24,4.28-2.48c1.17-1.23,2.07-3.94,2.71-8.11h1.1V254.36z M724.92,147.57c-2.17,0-3.8,0.25-4.86,0.77
	c-1.06,0.51-1.79,1.3-2.17,2.37c-0.39,1.08-0.58,3.81-0.58,8.2v82.78c0,4.25,0.19,6.89,0.58,7.94c0.38,1.05,1.06,1.92,2.03,2.6
	c0.96,0.69,2.63,1.03,5,1.03v1.1h-27.54v-1.1c2.98,0,4.97-0.61,5.97-1.83c1-1.22,1.5-4.51,1.5-9.88v-41.03H645.6v41.47
	c0,3.9,0.19,6.39,0.55,7.46c0.37,1.08,1.05,1.98,2.05,2.71c1,0.73,2.75,1.1,5.24,1.1v1.1h-27.91v-1.1c5.08,0.34,7.62-2.13,7.62-7.4
	v-86.73c0-4.93-0.4-8.05-1.21-9.37c-0.8-1.31-2.94-2.05-6.41-2.19v-1.1h27.91v1.1c-3.08,0.19-5.15,0.78-6.23,1.76
	c-1.07,0.97-1.61,2.97-1.61,6v42.19h59.25v-38.6c0-4.39-0.37-7.38-1.13-8.97c-0.76-1.59-2.87-2.38-6.34-2.38v-1.1h27.54V147.57z
	 M831.12,237.88c-11.13,12.11-25.9,18.16-44.31,18.16c-14.94,0-27.17-4.88-36.69-14.65c-9.52-9.76-14.28-21.48-14.28-35.16
	c0-9.22,2.29-18.7,6.88-28.41c4.59-9.72,11.5-17.64,20.73-23.77c9.23-6.13,20.16-9.19,32.81-9.19c15.14,0,27.51,4.6,37.13,13.8
	c9.62,9.21,14.43,20.7,14.43,34.46C847.82,210.85,842.26,225.77,831.12,237.88z"/>
<path class="st2" d="M339.82,203.42c-3.96-5.11-9.82-8.32-17.58-9.64c4.15-2.44,7.35-5.29,9.58-8.55l-8.63-4.06
	c-0.72,2.44-1.78,4.89-3.19,7.34c-2.9,5.08-8.8,7.62-17.68,7.62h-13.11v-30.95l-7.13-3.35l-5.33,1.26v77.87
	c0,5.51-0.46,8.94-1.39,10.28c-0.93,1.35-3.05,2.02-6.37,2.02v1.1h41.68c7.86,0,13.97-0.92,18.34-2.75s8.25-5.53,11.65-11.1
	c3.39-5.56,5.09-11.74,5.09-18.53C345.75,214.71,343.77,208.52,339.82,203.42z M328.76,245.68c-3.47,3.88-9.4,5.82-17.8,5.82
	c-5.42,0-9.57-0.48-12.45-1.43c-2.89-0.95-4.97-2.21-6.27-3.77c-1.29-1.56-2.12-3.05-2.49-4.47c-0.36-1.41-0.54-4.49-0.54-9.23
	v-34.2h8.42c10.3,0,17.39,0.54,21.27,1.61c3.89,1.07,7.37,4.1,10.44,9.08c3.08,4.98,4.62,11.43,4.62,19.34
	C333.96,236.04,332.22,241.79,328.76,245.68z"/>
<path class="st2" d="M425.51,228.43c-0.01,0.29-0.02,0.58-0.04,0.87c-0.41,8.17-2.05,13.77-4.9,16.78
	c-2.95,3.12-7.59,4.69-13.93,4.69h-13.17c-7.55,0-12.89-1.33-16.01-4c-3.13-2.66-4.69-7.23-4.69-13.73V204.5l-12.45-5.86v46.2
	c0,3.07-0.5,5.24-1.5,6.51s-3.18,1.91-6.55,1.91v1.1h74.34v-25.93H425.51z"/>
<path class="st2" d="M443.34,237.79c1.5,3.13,3.49,5.9,6,8.29c6.26,5.99,14.7,9,25.36,9.01
	C473.85,252.95,470.43,250.73,443.34,237.79z"/>
<path class="st2" d="M962.22,196.94c0.54,3.06,0.81,6.21,0.81,9.44c0,7.37-2.07,14.55-6.22,21.53c-4.15,6.99-9.84,12.47-17.07,16.45
	c-7.22,3.98-14.55,5.97-21.97,5.97c-12.91,0-24.59-5.51-35.05-16.53c-4.42,2.06-8.55,4-12.34,5.78c0.54,0.61,1.11,1.21,1.69,1.81
	c9.52,9.77,21.75,14.65,36.69,14.65c18.41,0,33.18-6.05,44.31-18.16c11.07-12.03,16.63-26.83,16.7-44.41L962.22,196.94z"/>
<path class="st2" d="M1091.79,175.07c-3.17-6.61-7.47-12.05-12.89-16.3c-5.42-4.24-11.78-7.36-19.08-9.33
	c-1.27-0.35-2.63-0.66-4.06-0.94c14.03,14.28,23.47,23.98,23.47,24.2c-0.12,0.08-1.78-0.12-4.5-0.54c6.64,8.8,9.96,18.74,9.96,29.83
	c0,12.25-4.09,23.57-12.27,33.94c-8.18,10.38-22.38,15.57-42.59,15.57c-7.28,0-13.06-0.57-17.36-1.72c-4.3-1.15-7.34-3.01-9.12-5.57
	c-1.78-2.56-2.67-6.48-2.67-11.75v-53.23l-12.45,5.73v53.58c0,5.57-0.42,9.41-1.25,11.53c-0.83,2.13-2.56,3.19-5.2,3.19h-1.32v1.1
	h50.69c13.13,0,22.84-1.02,29.11-3.04c6.28-2.03,12.24-5.79,17.91-11.28c5.66-5.5,10.14-12.04,13.44-19.63
	c3.3-7.59,4.94-15.32,4.94-23.18C1096.55,189.07,1094.97,181.69,1091.79,175.07z"/>
</svg>
