<?xml version="1.0" encoding="utf-8"?>
<!-- Generator: Adobe Illustrator 24.2.3, SVG Export Plug-In . SVG Version: 6.00 Build 0)  -->
<svg version="1.1" id="Layer_1" xmlns="http://www.w3.org/2000/svg" xmlns:xlink="http://www.w3.org/1999/xlink" x="0px" y="0px"
	 viewBox="0 0 1006.77 200" style="enable-background:new 0 0 1006.77 200;" xml:space="preserve">
<style type="text/css">
	.st0{fill-rule:evenodd;clip-rule:evenodd;fill:url(#SVGID_1_);}
	.st1{fill-rule:evenodd;clip-rule:evenodd;fill:#F0F0F0;}
	.st2{fill:#F0F0F0;}
</style>
<radialGradient id="SVGID_1_" cx="176.5929" cy="610.5357" r="192.9643" gradientTransform="matrix(2.6093 0 0 -0.5182 42.6033 416.3983)" gradientUnits="userSpaceOnUse">
	<stop  offset="0" style="stop-color:#19326E"/>
	<stop  offset="1" style="stop-color:#171747"/>
</radialGradient>
<rect x="-0.11" class="st0" width="1007" height="200"/>
<g>
	<path class="st1" d="M369.85,84.27c0.87,1.4,1.3,3.15,1.3,5.24c0,1-0.15,2.01-0.45,3.02l-13.11-6.17v-6.34h1.1
		c3.24,0,5.7,0.36,7.36,1.07C367.72,81.81,368.99,82.87,369.85,84.27z"/>
	<path class="st1" d="M567.33,91.27c-2.16-3.3-4.96-5.88-8.39-7.75c-3.44-1.86-6.62-2.8-9.54-2.8c-4.13,0-7.87,1.56-11.24,4.67
		c-3.36,3.11-5.04,6.97-5.04,11.59c0,5.9,2.05,11.08,6.16,15.55c4.11,4.47,8.71,6.7,13.82,6.7c2.86,0,5.69-0.77,8.48-2.3
		c2.79-1.54,4.99-3.65,6.59-6.35c1.6-2.69,2.4-5.46,2.4-8.31C570.57,98.23,569.49,94.57,567.33,91.27z M614.4,91.27
		c-2.16-3.3-4.96-5.88-8.4-7.75c-3.44-1.86-6.62-2.8-9.54-2.8c-4.13,0-7.87,1.56-11.23,4.67c-3.37,3.11-5.04,6.97-5.04,11.59
		c0,5.9,2.05,11.08,6.16,15.55c0.1,0.11,0.2,0.22,0.3,0.32c6.11-2.86,13.61-6.35,21.66-10.07l9.02-4.16
		C616.86,95.99,615.89,93.54,614.4,91.27z M658.07,86.13c-4.32-4.07-10.83-6.11-19.54-6.11h-6.38v11.77l12.36-5.7l8.86,1.67
		c2.99,0.57,5.68,1.04,7.34,1.3C659.95,88.04,659.07,87.06,658.07,86.13z M624.36,79.57v-0.42h19.11c4.01,0,7.33,0.26,9.95,0.78
		c-15.41-15.69-45.37-45.9-45.97-46.27c-0.2-0.12-19.74,5.86-43.39,13.31c-40.79,12.82-44.37,13.92-44.78,13.27
		c-0.08-0.16-1.51-6.19-3.13-13.39c-1.63-7.21-3.05-13.11-3.18-13.11c-0.12,0-1.51,2.61-3.05,5.82l-2.81,5.82l-7.85-0.12
		c-8.47-0.12-8.51-0.12-9.16-2.16c-1.18-3.62-3.3-9.36-3.42-9.24c-0.08,0.08-1.59,5.66-3.33,12.42
		c-3.54,13.52-3.67,13.88-4.48,13.88c-0.32,0-19.58-6.02-42.86-13.39c-23.28-7.37-42.58-13.52-43.07-13.64
		c-0.73-0.16-4.15,3.18-28.29,27.68c-26.42,26.83-28.29,28.78-27.23,28.41c0.24-0.08,4.28-1.06,8.96-2.16l6.41-1.51v-1.3
		c0-1.51-0.04-2.54-0.13-3.08s-0.36-0.95-0.83-1.22c-0.47-0.26-1.13-0.39-1.98-0.39v-0.42h10.83c3.16,0,5.41,0.13,6.73,0.39
		c1.32,0.27,2.58,0.77,3.79,1.51c1.21,0.74,2.23,1.82,3.08,3.22c0.85,1.4,1.27,3,1.27,4.79c0,1.89-0.5,3.57-1.5,5.04l11,5.18V83.04
		c0-1.2-0.15-2.08-0.45-2.61c-0.3-0.54-1.2-0.82-2.71-0.86v-0.42h11.16v0.42c-1.04,0-1.76,0.13-2.18,0.39
		c-0.41,0.27-0.69,0.58-0.82,0.93c-0.14,0.36-0.2,1.17-0.2,2.43v18.21l1.51,0.71c7.77,3.65,13.94,6.55,18.83,8.86l0.44,0.21
		c2.47,1.17,4.6,2.18,6.46,3.07c-0.88-1.82-1.31-3.96-1.31-6.41V83.04c0-1.51-0.18-2.47-0.54-2.87c-0.36-0.41-1.2-0.61-2.52-0.61
		v-0.42h11.05v0.42c-1.17,0-2,0.18-2.47,0.55c-0.48,0.37-0.72,1.24-0.72,2.61v22.87c0,4.79,1.12,8.2,3.36,10.25
		c2.24,2.05,4.79,3.07,7.65,3.07c4.5,0,8.49-2.03,11.97-6.08V84.65c0-2.47-0.22-3.93-0.65-4.4c-0.43-0.46-1.11-0.69-2.03-0.69h-0.4
		v-0.42h10.97v0.42c-1.36,0.07-2.21,0.3-2.56,0.68c-0.35,0.38-0.52,1.09-0.52,2.15v33.9c0,1.34,0.07,2.21,0.2,2.62
		c0.13,0.42,0.4,0.76,0.81,1.03c0.41,0.27,1.1,0.41,2.08,0.41v0.42h-7.89v-6.42c-4.01,4.47-8.79,6.7-14.34,6.7h-0.03
		c0.05,0.13,0.08,0.26,0.11,0.4c0.12,0.53,0.77,2.77,1.47,4.96l1.22,3.99l3.46-1.26c1.91-0.69,4.19-1.51,5.09-1.79l1.63-0.53
		l23.16,11.35l23.16,11.36l5.37,8.06c2.93,4.44,5.66,8.43,5.98,8.88c0.61,0.81,0.65,0.81,5.7-7.7c2.81-4.68,5.41-8.83,5.82-9.28
		c0.41-0.45,10.5-5.62,22.43-11.48l21.7-10.71l5.29,1.42c2.89,0.78,5.62,1.51,6.02,1.59c0.69,0.16,0.9-0.24,2.44-4.72
		c0.94-2.72,1.95-5.21,2.28-5.53c0.16-0.16,4.09-2.05,10.37-5c-3.24-3.62-4.86-7.92-4.86-12.87c0-3.56,0.89-7.22,2.66-10.96
		c1.77-3.75,4.44-6.81,8-9.17c3.56-2.37,7.78-3.55,12.66-3.55c5.84,0,10.62,1.78,14.33,5.33c3.71,3.55,5.57,7.99,5.57,13.3v0.14
		l7.12-3.28v-9.63c0-2.26-0.19-3.62-0.58-4.09C626.39,79.8,625.59,79.57,624.36,79.57z M484.53,120.78h-28.47v-0.42
		c0.96-0.06,1.69-0.24,2.19-0.55c0.5-0.31,0.75-1.12,0.75-2.42V83.77c0-1.52-0.13-2.6-0.4-3.22c-0.26-0.62-1.11-0.93-2.54-0.93
		v-0.48h26.17v5.74h-0.42c-0.56-2.13-1.04-3.38-1.42-3.76c-0.39-0.38-1.34-0.57-2.84-0.57h-13.74v18.68h12.75
		c1.26,0,2.06-0.12,2.4-0.35c0.34-0.24,0.52-0.58,0.54-1.03h0.42v3.93h-0.42c-0.1-0.55-0.32-0.91-0.66-1.1
		c-0.35-0.19-1-0.28-1.94-0.28h-13.09v12.86c0,1.94,0.18,3.34,0.54,4.2c0.36,0.86,0.93,1.39,1.71,1.61
		c0.78,0.22,1.96,0.33,3.54,0.33h7.34c2.33,0,3.82-0.08,4.47-0.24c0.65-0.16,1.2-0.48,1.65-0.96c0.45-0.47,0.8-1.52,1.05-3.13h0.42
		L484.53,120.78L484.53,120.78z M525.74,79.57c-0.84,0-1.47,0.1-1.88,0.3c-0.41,0.2-0.69,0.5-0.84,0.91
		c-0.15,0.42-0.22,1.47-0.22,3.16v31.95c0,1.64,0.07,2.66,0.22,3.06c0.15,0.41,0.41,0.74,0.78,1c0.37,0.27,1.02,0.4,1.93,0.4v0.42
		h-10.63v-0.42c1.15,0,1.92-0.24,2.3-0.71s0.58-1.74,0.58-3.81V100h-22.87v16c0,1.51,0.07,2.47,0.21,2.88
		c0.14,0.42,0.41,0.76,0.79,1.05s1.06,0.42,2.02,0.42v0.42h-10.77v-0.42c1.96,0.13,2.94-0.82,2.94-2.86V84.03
		c0-1.9-0.15-3.11-0.47-3.62c-0.31-0.51-1.13-0.79-2.47-0.85v-0.42h10.77v0.42c-1.19,0.07-1.99,0.3-2.4,0.68
		c-0.41,0.37-0.62,1.15-0.62,2.32v16.28h22.87v-14.9c0-1.69-0.14-2.85-0.44-3.46s-1.11-0.92-2.45-0.92v-0.42h10.63L525.74,79.57
		L525.74,79.57z M566.72,114.42c-4.3,4.67-10,7.01-17.1,7.01c-5.77,0-10.49-1.88-14.16-5.65c-3.67-3.77-5.51-8.29-5.51-13.57
		c0-3.56,0.88-7.22,2.66-10.96c1.77-3.75,4.44-6.81,8-9.17s7.78-3.55,12.66-3.55c5.84,0,10.62,1.78,14.33,5.33
		c3.71,3.55,5.57,7.99,5.57,13.3C573.17,103.99,571.02,109.75,566.72,114.42z"/>
	<path class="st2" d="M377.12,101.12c-1.53-1.97-3.79-3.21-6.78-3.72c1.6-0.94,2.84-2.04,3.7-3.3l-3.33-1.57
		c-0.28,0.94-0.69,1.89-1.23,2.83c-1.12,1.96-3.4,2.94-6.82,2.94h-5.06V86.36l-2.75-1.29l-2.06,0.49v30.05
		c0,2.13-0.18,3.45-0.54,3.97c-0.36,0.52-1.18,0.78-2.46,0.78v0.42h16.09c3.03,0,5.39-0.36,7.08-1.06c1.69-0.71,3.18-2.13,4.5-4.28
		c1.31-2.15,1.96-4.53,1.96-7.15C379.41,105.48,378.64,103.09,377.12,101.12z M372.85,117.43c-1.34,1.5-3.63,2.25-6.87,2.25
		c-2.09,0-3.69-0.19-4.8-0.55c-1.12-0.37-1.92-0.85-2.42-1.45c-0.5-0.6-0.82-1.18-0.96-1.73c-0.14-0.54-0.21-1.73-0.21-3.56v-13.2
		h3.25c3.98,0,6.71,0.21,8.21,0.62c1.5,0.41,2.84,1.58,4.03,3.5c1.19,1.92,1.78,4.41,1.78,7.46
		C374.86,113.71,374.18,115.93,372.85,117.43z"/>
	<path class="st2" d="M410.19,110.77c0,0.11-0.01,0.22-0.02,0.34c-0.16,3.15-0.79,5.31-1.89,6.48c-1.14,1.2-2.93,1.81-5.38,1.81
		h-5.08c-2.91,0-4.97-0.51-6.18-1.54c-1.21-1.03-1.81-2.79-1.81-5.3v-11.01l-4.8-2.26v17.83c0,1.18-0.19,2.02-0.58,2.51
		c-0.39,0.49-1.23,0.74-2.53,0.74v0.42h28.69v-10.01H410.19z"/>
	<path class="st2" d="M417.07,114.38c0.58,1.21,1.35,2.28,2.32,3.2c2.42,2.31,5.67,3.47,9.79,3.48
		C428.84,120.23,427.52,119.38,417.07,114.38z"/>
	<path class="st2" d="M617.32,98.62c0.21,1.18,0.31,2.4,0.31,3.64c0,2.84-0.8,5.62-2.4,8.31c-1.6,2.7-3.8,4.81-6.59,6.35
		c-2.79,1.54-5.62,2.3-8.48,2.3c-4.98,0-9.49-2.13-13.53-6.38c-1.71,0.8-3.3,1.54-4.76,2.23c0.21,0.24,0.43,0.47,0.65,0.7
		c3.67,3.77,8.39,5.65,14.16,5.65c7.1,0,12.81-2.33,17.1-7.01c4.27-4.64,6.42-10.35,6.45-17.14L617.32,98.62z"/>
	<path class="st2" d="M667.32,90.18c-1.22-2.55-2.88-4.65-4.97-6.29c-2.09-1.64-4.55-2.84-7.36-3.6c-0.49-0.14-1.02-0.25-1.57-0.36
		c5.41,5.51,9.06,9.25,9.06,9.34c-0.05,0.03-0.69-0.05-1.74-0.21c2.56,3.4,3.84,7.23,3.84,11.51c0,4.73-1.58,9.1-4.74,13.1
		c-3.16,4.01-8.64,6.01-16.44,6.01c-2.81,0-5.04-0.22-6.7-0.66c-1.66-0.44-2.83-1.16-3.52-2.15c-0.69-0.99-1.03-2.5-1.03-4.53V91.78
		l-4.8,2.21v20.68c0,2.15-0.16,3.63-0.48,4.45c-0.32,0.82-0.99,1.23-2.01,1.23h-0.51v0.42h19.56c5.07,0,8.81-0.39,11.23-1.17
		c2.42-0.78,4.72-2.23,6.91-4.35c2.18-2.12,3.91-4.65,5.19-7.58s1.91-5.91,1.91-8.95C669.16,95.58,668.55,92.73,667.32,90.18z"/>
</g>
</svg>
