<?xml version="1.0" encoding="utf-8"?>
<!-- Generator: Adobe Illustrator 24.2.3, SVG Export Plug-In . SVG Version: 6.00 Build 0)  -->
<svg version="1.1" id="Layer_1" xmlns="http://www.w3.org/2000/svg" xmlns:xlink="http://www.w3.org/1999/xlink" x="0px" y="0px"
	 viewBox="0 0 1006.8 200" style="enable-background:new 0 0 1006.8 200;" xml:space="preserve">
<style type="text/css">
	.st0{fill-rule:evenodd;clip-rule:evenodd;fill:url(#SVGID_1_);}
	.st1{fill-rule:evenodd;clip-rule:evenodd;fill:#F0F0F0;}
	.st2{fill:#F0F0F0;}
</style>
<radialGradient id="SVGID_1_" cx="-44.1407" cy="610.5718" r="192.9727" gradientTransform="matrix(2.6087 0 0 -0.5182 618.5498 416.3983)" gradientUnits="userSpaceOnUse">
	<stop  offset="0" style="stop-color:#19326E"/>
	<stop  offset="1" style="stop-color:#171747"/>
</radialGradient>
<rect class="st0" width="1006.8" height="200"/>
<g>
	<path class="st1" d="M369.3,85c0.8,1.3,1.3,3,1.3,5c0,0.2,0,0.5,0,0.7L359,85.2l-1.4,0.4v-4.7h1.1c3.2,0,5.5,0.4,7.1,1.1
		C367.2,82.5,368.5,83.6,369.3,85z"/>
	<path class="st1" d="M559.2,91.7c-2.1-3.2-4.8-5.6-8.1-7.5c-3.3-1.8-6.3-2.7-9.1-2.7c-4,0-7.6,1.5-10.9,4.4s-4.9,6.7-4.9,11.1
		c0,5.7,2,10.6,6,15c4,4.3,8.4,6.4,13.3,6.4c2.8,0,5.5-0.7,8.2-2.2c2.7-1.5,4.8-3.5,6.3-6.1c1.5-2.6,2.3-5.3,2.3-7.9
		C562.3,98.4,561.3,94.8,559.2,91.7z M604.4,91.7c-2.1-3.2-4.8-5.6-8.1-7.5c-3.3-1.8-6.3-2.7-9.2-2.7c-4,0-7.6,1.5-10.9,4.4
		s-4.8,6.7-4.8,11.1c0,5.7,2,10.6,6,15c1.6,1.8,3.4,3.3,5.3,4.2c5.8-2.8,14.7-6.9,24.7-11.5c0.2-0.9,0.2-1.8,0.2-2.7
		C607.6,98.4,606.5,94.8,604.4,91.7z M611,33.9c-0.2-0.1-19.8,5.8-43.4,13.3C526.9,60,523.3,61.1,523,60.4
		c-0.1-0.1-1.5-6.2-3.2-13.3c-1.6-7.2-3-13.1-3.2-13.1c-0.1,0-1.5,2.6-3,5.8l-2.8,5.8l-7.8-0.1c-8.4-0.1-8.5-0.1-9.1-2.1
		c-1.2-3.6-3.3-9.2-3.4-9.2c-0.1,0.1-1.6,5.6-3.4,12.4c-3.5,13.4-3.6,13.9-4.4,13.9c-0.4,0-19.5-6.1-42.8-13.3s-42.5-13.8-43-13.9
		c-0.7-0.1-4.1,3.2-28.3,27.6c-26.3,26.8-28.3,28.7-27.2,28.4c0.2-0.1,4.2-1.1,8.9-2.1l2.5-0.6V85c0-1.4,0-2.5-0.1-2.9
		c-0.1-0.6-0.4-0.9-0.8-1.2c-0.5-0.2-1.1-0.4-1.9-0.4v-0.5h10.4c3,0,5.3,0.1,6.4,0.4c1.3,0.2,2.5,0.7,3.6,1.4
		c1.2,0.7,2.1,1.8,2.9,3.2c0.8,1.3,1.2,2.9,1.2,4.6c0,1.1-0.1,2-0.5,2.8l9.6,4.6V83.8c0-1.2-0.1-2-0.5-2.6c-0.4-0.6-1.2-0.8-2.6-0.8
		V80h10.8v0.5c-1.1,0-1.8,0.1-2.1,0.4c-0.4,0.2-0.7,0.6-0.8,0.9c-0.1,0.4-0.2,1.2-0.2,2.3v15.1l6.8,3.2c7.6,3.5,13.6,6.4,18.5,8.6
		c-0.2-1.1-0.4-2.1-0.4-3.3V83.8c0-1.4-0.2-2.3-0.5-2.8c-0.4-0.4-1.2-0.6-2.5-0.6V80h10.6v0.5c-1.2,0-1.9,0.1-2.3,0.6
		c-0.5,0.4-0.7,1.2-0.7,2.6v22c0,3.7,0.7,6.5,2.1,8.5c4,1.9,6.8,3.3,8.6,4.2c4.2,0,8.1-2,11.3-5.8V85.3c0-2.3-0.2-3.7-0.6-4.2
		c-0.5-0.5-1.1-0.7-2-0.7h-0.4V80h10.5v0.5c-1.3,0.1-2.1,0.4-2.5,0.7c-0.4,0.4-0.5,1.1-0.5,2.1v32.6c0,1.3,0.1,2.1,0.2,2.6
		c0.1,0.4,0.4,0.7,0.8,0.9c0.4,0.2,1.1,0.4,2,0.4v0.4h-7.6v-6.2c-2.6,2.9-5.5,4.8-8.8,5.7c1.6,0.9,1.6,1.3,1.8,1.9
		c0.1,0.6,0.8,2.8,1.5,4.9l1.2,4l3.5-1.3c1.9-0.7,4.2-1.5,5-1.8l1.6-0.6l23.1,11.3l23.1,11.3l5.4,8.1c2.9,4.4,5.6,8.4,6,8.9
		c0.6,0.8,0.7,0.8,5.7-7.7c2.8-4.7,5.4-8.8,5.8-9.2c0.4-0.5,10.5-5.6,22.3-11.5l21.6-10.6l5.3,1.4c2.9,0.8,5.6,1.5,6,1.5
		c0.7,0.1,0.9-0.2,2.5-4.7c0.9-2.7,2-5.3,2.3-5.5c0.1-0.1,1.2-0.6,3.2-1.5c-1.6-0.8-3-2-4.4-3.3c-3.5-3.6-5.3-7.9-5.3-13.1
		c0-3.4,0.8-6.9,2.6-10.5c1.8-3.6,4.3-6.5,7.7-8.8c3.4-2.2,7.5-3.4,12.2-3.4c5.6,0,10.2,1.8,13.8,5.1c3.6,3.4,5.4,7.7,5.4,12.7
		c0,2.3-0.2,4.6-0.8,6.7c0.8-0.4,1.6-0.8,2.5-1.2l5.1-2.3V85.1c0-2.2-0.2-3.5-0.6-4s-1.2-0.7-2.3-0.7V80h18.3
		c4.7,0,8.4,0.4,11.1,1.2c2.7,0.7,5,1.9,7.1,3.5c0.9,0.8,1.9,1.6,2.7,2.6l3.5,0.7c4.9,0.9,9,1.6,9.1,1.5
		C665.9,89.1,611.8,34.4,611,33.9z M479.6,120h-27.3v-0.4c0.9,0,1.6-0.2,2.1-0.6c0.5-0.4,0.7-1.1,0.7-2.3V84.5c0-1.5-0.1-2.5-0.4-3
		c-0.2-0.6-1.1-0.9-2.5-0.9v-0.5h25.1v5.5H477c-0.6-2.1-1.1-3.3-1.4-3.6c-0.4-0.4-1.3-0.6-2.7-0.6h-13.2v18H472c1.2,0,2-0.1,2.3-0.4
		c0.4-0.2,0.5-0.6,0.5-0.9h0.4v3.7h-0.4c-0.1-0.6-0.4-0.9-0.6-1.1c-0.4-0.2-0.9-0.2-1.9-0.2h-12.6v12.4c0,1.9,0.2,3.3,0.5,4.1
		c0.4,0.8,0.9,1.3,1.6,1.5c0.7,0.2,1.9,0.4,3.4,0.4h7c2.2,0,3.7-0.1,4.3-0.2c0.6-0.1,1.2-0.5,1.6-0.9c0.5-0.5,0.7-1.5,0.9-3h0.4v5.4
		H479.6z M519.2,80.4c-0.8,0-1.4,0.1-1.8,0.4c-0.4,0.2-0.7,0.5-0.8,0.9c-0.1,0.4-0.2,1.4-0.2,3v30.7c0,1.6,0.1,2.6,0.2,2.9
		c0.1,0.4,0.4,0.7,0.7,0.9c0.4,0.2,0.9,0.4,1.9,0.4v0.4h-10.3v-0.4c1.1,0,1.9-0.2,2.2-0.7c0.4-0.5,0.6-1.6,0.6-3.6v-15.2h-22v15.4
		c0,1.4,0.1,2.3,0.2,2.8c0.1,0.4,0.4,0.7,0.8,1.1c0.4,0.2,1.1,0.4,2,0.4v0.4h-10.4v-0.4c1.9,0.1,2.8-0.8,2.8-2.7V84.8
		c0-1.9-0.1-3-0.5-3.5c-0.4-0.5-1.1-0.8-2.3-0.8V80h10.4v0.5c-1.2,0.1-1.9,0.4-2.3,0.7c-0.4,0.4-0.6,1.2-0.6,2.2V99h22V84.6
		c0-1.6-0.1-2.7-0.5-3.3c-0.2-0.6-1.1-0.9-2.3-0.9V80h10.2L519.2,80.4L519.2,80.4z M558.6,114c-4.1,4.4-9.6,6.8-16.5,6.8
		c-5.5,0-10.1-1.8-13.6-5.4c-3.5-3.6-5.3-7.9-5.3-13.1c0-3.4,0.8-6.9,2.6-10.5c1.8-3.6,4.3-6.5,7.7-8.8c3.4-2.2,7.5-3.4,12.2-3.4
		c5.6,0,10.2,1.8,13.8,5.1s5.4,7.7,5.4,12.7C564.8,103.9,562.7,109.4,558.6,114z M627.7,80.9h-6.2v17.5l25-11.6c0,0,0,0-0.1-0.1
		C642.4,82.8,636.1,80.9,627.7,80.9z"/>
	<g>
		<path class="st2" d="M376.3,101.1c-1.5-1.9-3.6-3-6.5-3.6c2.3-1.4,3.9-3,4.6-5.1l-3.7-1.8c-0.1,1.6-0.7,3.3-1.6,5
			c-1.1,1.9-3.3,2.8-6.5,2.8h-4.9V85.6l-4.7,1.1v28.5c0,2.1-0.1,3.3-0.6,3.9c-0.4,0.5-1.2,0.7-2.3,0.7v0.4h15.4
			c2.9,0,5.1-0.4,6.8-1.1s3-2.1,4.3-4.1c1.3-2.1,1.9-4.3,1.9-6.9C378.4,105.3,377.7,103.1,376.3,101.1z M372.1,116.9
			c-1.3,1.4-3.5,2.1-6.5,2.1c-2,0-3.5-0.2-4.7-0.6c-1.1-0.4-1.9-0.8-2.3-1.4c-0.5-0.6-0.8-1.2-0.9-1.6c-0.1-0.5-0.2-1.6-0.2-3.4
			V99.2h3.2c3.9,0,6.4,0.2,7.9,0.6c1.4,0.4,2.7,1.5,3.9,3.4c1.2,1.9,1.8,4.2,1.8,7.1C374.1,113.3,373.4,115.4,372.1,116.9z"/>
		<path class="st2" d="M408.1,110.5c-0.1,3.2-0.7,5.4-1.9,6.5c-1.1,1.2-2.8,1.8-5.1,1.8h-4.9c-2.8,0-4.8-0.5-6-1.5
			c-1.2-0.9-1.8-2.7-1.8-5.1v-13l-4.7-2.2v19.6c0,1.2-0.2,2-0.6,2.5c-0.4,0.5-1.2,0.7-2.5,0.7v0.4h27.7v-9.6
			C408.4,110.5,408.1,110.5,408.1,110.5z"/>
		<path class="st2" d="M428.8,118.3h-0.1c-2.8,0-5.3-0.9-7.4-2.9c-0.4-0.4-0.8-0.8-1.2-1.3c-1.9-0.9-4-1.9-6.4-3
			c0.5,2.5,1.5,4.4,3.2,6c2.3,2.2,5.5,3.4,9.5,3.4c1.8,0,3.4-0.2,5-0.7C430.8,119.3,429.9,118.9,428.8,118.3z"/>
		<path class="st2" d="M607.3,104.9c-0.4,1.9-1.1,3.6-2.1,5.4c-1.5,2.6-3.6,4.7-6.3,6.1c-2.7,1.5-5.4,2.2-8.2,2.2s-5.5-0.7-8.1-2.2
			c-1.8,0.8-3.3,1.6-4.6,2.2c2.7,1.4,5.7,2.1,9.2,2.1c6.9,0,12.3-2.2,16.5-6.8c2.7-2.9,4.4-6.2,5.4-9.9
			C608.6,104.3,607.9,104.6,607.3,104.9z"/>
		<path class="st2" d="M655.4,90.6c-0.6-1.3-1.3-2.5-2.1-3.4l-5.3-0.9l-1.3,0.6c4.1,3.9,6.2,8.5,6.2,13.8c0,4.6-1.5,8.8-4.6,12.6
			c-3,3.9-8.3,5.7-15.8,5.7c-2.7,0-4.9-0.2-6.4-0.6c-1.6-0.5-2.7-1.2-3.4-2.1c-0.7-0.9-0.9-2.5-0.9-4.3V98.3l-4.7,2.1v13.7
			c0,2.1-0.1,3.5-0.5,4.3c-0.4,0.8-0.9,1.2-2,1.2h-0.6v0.4h18.7c4.9,0,8.5-0.4,10.9-1.2c2.3-0.7,4.6-2.1,6.7-4.2
			c2.1-2,3.7-4.4,5-7.2c1.2-2.8,1.9-5.7,1.9-8.6C657.1,95.9,656.5,93.1,655.4,90.6z"/>
	</g>
</g>
</svg>
