<?xml version="1.0" encoding="utf-8"?>
<!-- Generator: Adobe Illustrator 24.2.3, SVG Export Plug-In . SVG Version: 6.00 Build 0)  -->
<svg version="1.1" id="Layer_1" xmlns="http://www.w3.org/2000/svg" xmlns:xlink="http://www.w3.org/1999/xlink" x="0px" y="0px"
	 viewBox="0 0 1006.8 200" style="enable-background:new 0 0 1006.8 200;" xml:space="preserve">
<style type="text/css">
	.st0{fill-rule:evenodd;clip-rule:evenodd;fill:url(#SVGID_1_);}
	.st1{fill-rule:evenodd;clip-rule:evenodd;fill:#F0F0F0;}
	.st2{fill:#F0F0F0;}
</style>
<radialGradient id="SVGID_1_" cx="66.2369" cy="-410.5718" r="192.9697" gradientTransform="matrix(2.6087 0 0 0.5182 330.5925 312.7583)" gradientUnits="userSpaceOnUse">
	<stop  offset="0" style="stop-color:#19326E"/>
	<stop  offset="1" style="stop-color:#171747"/>
</radialGradient>
<rect class="st0" width="1006.8" height="200"/>
<g>
	<path class="st1" d="M388.5,87.1c0.7,1.1,1.1,2.6,1.1,4.3c0,0.2,0,0.4,0,0.6l-9.9-4.7l-1.2,0.3v-4h0.9c2.7,0,4.7,0.3,6.1,0.9
		C386.7,85,387.8,85.9,388.5,87.1z"/>
	<path class="st1" d="M551,92.8c-1.8-2.7-4.1-4.8-6.9-6.4c-2.8-1.5-5.4-2.3-7.8-2.3c-3.4,0-6.5,1.3-9.3,3.8
		c-2.8,2.5-4.2,5.7-4.2,9.5c0,4.9,1.7,9.1,5.1,12.8s7.2,5.5,11.4,5.5c2.4,0,4.7-0.6,7-1.9c2.3-1.3,4.1-3,5.4-5.2
		c1.3-2.2,2-4.5,2-6.8C553.7,98.6,552.8,95.5,551,92.8z M589.7,92.8c-1.8-2.7-4.1-4.8-6.9-6.4c-2.8-1.5-5.4-2.3-7.9-2.3
		c-3.4,0-6.5,1.3-9.3,3.8c-2.8,2.5-4.1,5.7-4.1,9.5c0,4.9,1.7,9.1,5.1,12.8c1.4,1.5,2.9,2.8,4.5,3.6c5-2.4,12.6-5.9,21.1-9.8
		c0.2-0.8,0.2-1.5,0.2-2.3C592.4,98.6,591.5,95.5,589.7,92.8z M595.3,43.4c-0.2-0.1-16.9,5-37.1,11.4
		c-34.8,10.9-37.9,11.9-38.2,11.3c-0.1-0.1-1.3-5.3-2.7-11.4c-1.4-6.2-2.6-11.2-2.7-11.2c-0.1,0-1.3,2.2-2.6,5l-2.4,5l-6.7-0.1
		c-7.2-0.1-7.3-0.1-7.8-1.8c-1-3.1-2.8-7.9-2.9-7.9c-0.1,0.1-1.4,4.8-2.9,10.6c-3,11.5-3.1,11.9-3.8,11.9c-0.3,0-16.7-5.2-36.6-11.4
		S412.5,43,412.1,42.9c-0.6-0.1-3.5,2.7-24.2,23.6c-22.5,22.9-24.2,24.6-23.3,24.3c0.2-0.1,3.6-0.9,7.6-1.8l2.1-0.5v-1.4
		c0-1.2,0-2.1-0.1-2.5c-0.1-0.5-0.3-0.8-0.7-1c-0.4-0.2-0.9-0.3-1.6-0.3v-0.4h8.9c2.6,0,4.5,0.1,5.5,0.3c1.1,0.2,2.1,0.6,3.1,1.2
		c1,0.6,1.8,1.5,2.5,2.7c0.7,1.1,1,2.5,1,3.9c0,0.9-0.1,1.7-0.4,2.4l8.2,3.9V86.1c0-1-0.1-1.7-0.4-2.2s-1-0.7-2.2-0.7v-0.4h9.2v0.4
		c-0.9,0-1.5,0.1-1.8,0.3c-0.3,0.2-0.6,0.5-0.7,0.8c-0.1,0.3-0.2,1-0.2,2v12.9l5.8,2.7c6.5,3,11.6,5.5,15.8,7.4
		c-0.2-0.9-0.3-1.8-0.3-2.8V86.1c0-1.2-0.2-2-0.4-2.4c-0.3-0.3-1-0.5-2.1-0.5v-0.4h9.1v0.4c-1,0-1.6,0.1-2,0.5
		c-0.4,0.3-0.6,1-0.6,2.2v18.8c0,3.2,0.6,5.6,1.8,7.3c3.4,1.6,5.8,2.8,7.4,3.6c3.6,0,6.9-1.7,9.7-5V87.4c0-2-0.2-3.2-0.5-3.6
		c-0.4-0.4-0.9-0.6-1.7-0.6h-0.3v-0.4h9v0.4c-1.1,0.1-1.8,0.3-2.1,0.6c-0.3,0.3-0.4,0.9-0.4,1.8v27.9c0,1.1,0.1,1.8,0.2,2.2
		c0.1,0.3,0.3,0.6,0.7,0.8c0.3,0.2,0.9,0.3,1.7,0.3v0.3h-6.5v-5.3c-2.2,2.5-4.7,4.1-7.5,4.9c1.4,0.8,1.4,1.1,1.5,1.6
		c0.1,0.5,0.7,2.4,1.3,4.2l1,3.4l3-1.1c1.6-0.6,3.6-1.3,4.3-1.5l1.4-0.5l19.8,9.7l19.8,9.7l4.6,6.9c2.5,3.8,4.8,7.2,5.1,7.6
		c0.5,0.7,0.6,0.7,4.9-6.6c2.4-4,4.6-7.5,5-7.9c0.3-0.4,9-4.8,19.1-9.8l18.5-9.1l4.5,1.2c2.5,0.7,4.8,1.3,5.1,1.3
		c0.6,0.1,0.8-0.2,2.1-4c0.8-2.3,1.7-4.5,2-4.7c0.1-0.1,1-0.5,2.7-1.3c-1.4-0.7-2.6-1.7-3.8-2.8c-3-3.1-4.5-6.8-4.5-11.2
		c0-2.9,0.7-5.9,2.2-9c1.5-3.1,3.7-5.6,6.6-7.5c2.9-1.9,6.4-2.9,10.4-2.9c4.8,0,8.7,1.5,11.8,4.4c3.1,2.9,4.6,6.6,4.6,10.9
		c0,2-0.2,3.9-0.7,5.7c0.7-0.3,1.4-0.7,2.1-1l4.4-2V87.2c0-1.9-0.2-3-0.5-3.4c-0.3-0.4-1-0.6-2-0.6v-0.4h15.7c4,0,7.2,0.3,9.5,1
		c2.3,0.6,4.3,1.6,6.1,3c0.8,0.7,1.6,1.4,2.3,2.2l3,0.6c4.2,0.8,7.7,1.4,7.8,1.3C642.3,90.6,596,43.8,595.3,43.4z M482.9,117.1
		h-23.4v-0.3c0.8,0,1.4-0.2,1.8-0.5c0.4-0.3,0.6-0.9,0.6-2V86.7c0-1.3-0.1-2.1-0.3-2.6c-0.2-0.5-0.9-0.8-2.1-0.8v-0.4H481v4.7h-0.3
		c-0.5-1.8-0.9-2.8-1.2-3.1c-0.3-0.3-1.1-0.5-2.3-0.5h-11.3v15.4h10.5c1,0,1.7-0.1,2-0.3c0.3-0.2,0.4-0.5,0.4-0.8h0.3v3.2h-0.3
		c-0.1-0.5-0.3-0.8-0.5-0.9c-0.3-0.2-0.8-0.2-1.6-0.2h-10.8v10.6c0,1.6,0.2,2.8,0.4,3.5c0.3,0.7,0.8,1.1,1.4,1.3
		c0.6,0.2,1.6,0.3,2.9,0.3h6c1.9,0,3.2-0.1,3.7-0.2c0.5-0.1,1-0.4,1.4-0.8c0.4-0.4,0.6-1.3,0.8-2.6h0.3V117.1z M516.8,83.2
		c-0.7,0-1.2,0.1-1.5,0.3c-0.3,0.2-0.6,0.4-0.7,0.8c-0.1,0.3-0.2,1.2-0.2,2.6v26.3c0,1.4,0.1,2.2,0.2,2.5c0.1,0.3,0.3,0.6,0.6,0.8
		c0.3,0.2,0.8,0.3,1.6,0.3v0.3H508v-0.3c0.9,0,1.6-0.2,1.9-0.6c0.3-0.4,0.5-1.4,0.5-3.1v-13h-18.8v13.2c0,1.2,0.1,2,0.2,2.4
		c0.1,0.3,0.3,0.6,0.7,0.9c0.3,0.2,0.9,0.3,1.7,0.3v0.3h-8.9v-0.3c1.6,0.1,2.4-0.7,2.4-2.3V86.9c0-1.6-0.1-2.6-0.4-3
		c-0.3-0.4-0.9-0.7-2-0.7v-0.4h8.9v0.4c-1,0.1-1.6,0.3-2,0.6c-0.3,0.3-0.5,1-0.5,1.9v13.4h18.8V86.8c0-1.4-0.1-2.3-0.4-2.8
		c-0.2-0.5-0.9-0.8-2-0.8v-0.4h8.7V83.2z M550.5,111.9c-3.5,3.8-8.2,5.8-14.1,5.8c-4.7,0-8.6-1.5-11.6-4.6c-3-3.1-4.5-6.8-4.5-11.2
		c0-2.9,0.7-5.9,2.2-9c1.5-3.1,3.7-5.6,6.6-7.5c2.9-1.9,6.4-2.9,10.4-2.9c4.8,0,8.7,1.5,11.8,4.4c3.1,2.9,4.6,6.6,4.6,10.9
		C555.8,103.3,554,108,550.5,111.9z M609.6,83.6h-5.3v15l21.4-9.9c0,0,0,0-0.1-0.1C622.2,85.2,616.8,83.6,609.6,83.6z"/>
	<g>
		<path class="st2" d="M394.5,100.9c-1.3-1.6-3.1-2.6-5.6-3.1c2-1.2,3.3-2.6,3.9-4.4l-3.2-1.5c-0.1,1.4-0.6,2.8-1.4,4.3
			c-0.9,1.6-2.8,2.4-5.6,2.4h-4.2V87.6l-4,0.9v24.4c0,1.8-0.1,2.8-0.5,3.3c-0.3,0.4-1,0.6-2,0.6v0.3h13.2c2.5,0,4.4-0.3,5.8-0.9
			c1.4-0.6,2.6-1.8,3.7-3.5c1.1-1.8,1.6-3.7,1.6-5.9C396.3,104.5,395.7,102.6,394.5,100.9z M390.9,114.4c-1.1,1.2-3,1.8-5.6,1.8
			c-1.7,0-3-0.2-4-0.5c-0.9-0.3-1.6-0.7-2-1.2c-0.4-0.5-0.7-1-0.8-1.4c-0.1-0.4-0.2-1.4-0.2-2.9V99.3h2.7c3.3,0,5.5,0.2,6.8,0.5
			c1.2,0.3,2.3,1.3,3.3,2.9c1,1.6,1.5,3.6,1.5,6.1C392.6,111.3,392,113.1,390.9,114.4z"/>
		<path class="st2" d="M421.7,108.9c-0.1,2.7-0.6,4.6-1.6,5.6c-0.9,1-2.4,1.5-4.4,1.5h-4.2c-2.4,0-4.1-0.4-5.1-1.3
			c-1-0.8-1.5-2.3-1.5-4.4V99.2l-4-1.9v16.8c0,1-0.2,1.7-0.5,2.1c-0.3,0.4-1,0.6-2.1,0.6v0.3H422v-8.2H421.7z"/>
		<path class="st2" d="M439.4,115.6h-0.1c-2.4,0-4.5-0.8-6.3-2.5c-0.3-0.3-0.7-0.7-1-1.1c-1.6-0.8-3.4-1.6-5.5-2.6
			c0.4,2.1,1.3,3.8,2.7,5.1c2,1.9,4.7,2.9,8.1,2.9c1.5,0,2.9-0.2,4.3-0.6C441.1,116.5,440.4,116.1,439.4,115.6z"/>
		<path class="st2" d="M592.2,104.1c-0.3,1.6-0.9,3.1-1.8,4.6c-1.3,2.2-3.1,4-5.4,5.2c-2.3,1.3-4.6,1.9-7,1.9
			c-2.4,0-4.7-0.6-6.9-1.9c-1.5,0.7-2.8,1.4-3.9,1.9c2.3,1.2,4.9,1.8,7.9,1.8c5.9,0,10.5-1.9,14.1-5.8c2.3-2.5,3.8-5.3,4.6-8.5
			C593.3,103.6,592.7,103.9,592.2,104.1z"/>
		<path class="st2" d="M633.3,91.9c-0.5-1.1-1.1-2.1-1.8-2.9l-4.5-0.8l-1.1,0.5c3.5,3.3,5.3,7.3,5.3,11.8c0,3.9-1.3,7.5-3.9,10.8
			c-2.6,3.3-7.1,4.9-13.5,4.9c-2.3,0-4.2-0.2-5.5-0.5c-1.4-0.4-2.3-1-2.9-1.8c-0.6-0.8-0.8-2.1-0.8-3.7V98.5l-4,1.8v11.7
			c0,1.8-0.1,3-0.4,3.7c-0.3,0.7-0.8,1-1.7,1H598v0.3H614c4.2,0,7.3-0.3,9.3-1c2-0.6,3.9-1.8,5.7-3.6c1.8-1.7,3.2-3.8,4.3-6.2
			c1-2.4,1.6-4.9,1.6-7.4C634.8,96.4,634.3,94,633.3,91.9z"/>
	</g>
</g>
</svg>
